<mxfile host="app.diagrams.net" modified="2024-01-28T23:12:43.022Z" agent="Mozilla/5.0 (Windows NT 10.0; Win64; x64) AppleWebKit/537.36 (KHTML, like Gecko) Chrome/120.0.0.0 Safari/537.36" etag="aABxrc06BSz5_hvNQ4ZQ" version="23.0.2" type="github">
  <diagram name="Page-1" id="e7e014a7-5840-1c2e-5031-d8a46d1fe8dd">
    <mxGraphModel dx="2607" dy="1404" grid="1" gridSize="10" guides="1" tooltips="1" connect="1" arrows="1" fold="1" page="1" pageScale="1" pageWidth="1169" pageHeight="826" background="none" math="0" shadow="0">
      <root>
        <mxCell id="0" />
        <mxCell id="1" parent="0" />
        <mxCell id="F9jJWtzdqdsVhb2H7EBQ-216" value="" style="endArrow=none;dashed=1;html=1;dashPattern=1 3;strokeWidth=2;rounded=0;entryX=0.75;entryY=1;entryDx=0;entryDy=0;exitX=0.5;exitY=0;exitDx=0;exitDy=0;" edge="1" parent="1" target="F9jJWtzdqdsVhb2H7EBQ-63">
          <mxGeometry width="50" height="50" relative="1" as="geometry">
            <mxPoint x="695" y="670" as="sourcePoint" />
            <mxPoint x="700" y="110" as="targetPoint" />
            <Array as="points" />
          </mxGeometry>
        </mxCell>
        <mxCell id="F9jJWtzdqdsVhb2H7EBQ-215" value="" style="endArrow=none;dashed=1;html=1;dashPattern=1 3;strokeWidth=2;rounded=0;entryX=0.5;entryY=1;entryDx=0;entryDy=0;exitX=0.5;exitY=0;exitDx=0;exitDy=0;" edge="1" parent="1" source="F9jJWtzdqdsVhb2H7EBQ-130" target="F9jJWtzdqdsVhb2H7EBQ-63">
          <mxGeometry width="50" height="50" relative="1" as="geometry">
            <mxPoint x="525" y="670" as="sourcePoint" />
            <mxPoint x="620" y="110" as="targetPoint" />
            <Array as="points" />
          </mxGeometry>
        </mxCell>
        <mxCell id="F9jJWtzdqdsVhb2H7EBQ-214" value="" style="endArrow=none;dashed=1;html=1;dashPattern=1 3;strokeWidth=2;rounded=0;entryX=0.5;entryY=1;entryDx=0;entryDy=0;exitX=0.5;exitY=0;exitDx=0;exitDy=0;" edge="1" parent="1" source="F9jJWtzdqdsVhb2H7EBQ-128" target="F9jJWtzdqdsVhb2H7EBQ-63">
          <mxGeometry width="50" height="50" relative="1" as="geometry">
            <mxPoint x="465.5" y="676" as="sourcePoint" />
            <mxPoint x="647.5" y="116" as="targetPoint" />
            <Array as="points" />
          </mxGeometry>
        </mxCell>
        <mxCell id="F9jJWtzdqdsVhb2H7EBQ-213" value="" style="endArrow=none;dashed=1;html=1;dashPattern=1 3;strokeWidth=2;rounded=0;entryX=0.5;entryY=1;entryDx=0;entryDy=0;exitX=0.5;exitY=0;exitDx=0;exitDy=0;" edge="1" parent="1" source="F9jJWtzdqdsVhb2H7EBQ-126" target="F9jJWtzdqdsVhb2H7EBQ-63">
          <mxGeometry width="50" height="50" relative="1" as="geometry">
            <mxPoint x="338" y="670" as="sourcePoint" />
            <mxPoint x="626" y="110" as="targetPoint" />
            <Array as="points">
              <mxPoint x="470" y="290" />
            </Array>
          </mxGeometry>
        </mxCell>
        <mxCell id="F9jJWtzdqdsVhb2H7EBQ-212" value="" style="endArrow=none;dashed=1;html=1;dashPattern=1 3;strokeWidth=2;rounded=0;entryX=0;entryY=0.5;entryDx=0;entryDy=0;exitX=0.5;exitY=0;exitDx=0;exitDy=0;" edge="1" parent="1" source="F9jJWtzdqdsVhb2H7EBQ-123">
          <mxGeometry width="50" height="50" relative="1" as="geometry">
            <mxPoint x="260" y="660" as="sourcePoint" />
            <mxPoint x="616" y="100" as="targetPoint" />
            <Array as="points">
              <mxPoint x="441" y="262.5" />
            </Array>
          </mxGeometry>
        </mxCell>
        <mxCell id="F9jJWtzdqdsVhb2H7EBQ-211" value="" style="endArrow=none;dashed=1;html=1;dashPattern=1 3;strokeWidth=2;rounded=0;entryX=0;entryY=0.5;entryDx=0;entryDy=0;exitX=0.5;exitY=0;exitDx=0;exitDy=0;" edge="1" parent="1" source="F9jJWtzdqdsVhb2H7EBQ-119">
          <mxGeometry width="50" height="50" relative="1" as="geometry">
            <mxPoint x="140" y="672.5" as="sourcePoint" />
            <mxPoint x="595" y="100" as="targetPoint" />
            <Array as="points">
              <mxPoint x="420" y="262.5" />
            </Array>
          </mxGeometry>
        </mxCell>
        <mxCell id="F9jJWtzdqdsVhb2H7EBQ-210" value="" style="endArrow=none;dashed=1;html=1;dashPattern=1 3;strokeWidth=2;rounded=0;entryX=0;entryY=0.5;entryDx=0;entryDy=0;" edge="1" parent="1">
          <mxGeometry width="50" height="50" relative="1" as="geometry">
            <mxPoint x="120" y="660" as="sourcePoint" />
            <mxPoint x="575" y="87.5" as="targetPoint" />
            <Array as="points">
              <mxPoint x="400" y="250" />
            </Array>
          </mxGeometry>
        </mxCell>
        <mxCell id="F9jJWtzdqdsVhb2H7EBQ-62" value="pickle" style="shape=folder;fontStyle=1;spacingTop=10;tabWidth=40;tabHeight=14;tabPosition=left;html=1;whiteSpace=wrap;" vertex="1" parent="1">
          <mxGeometry x="810" y="240" width="70" height="50" as="geometry" />
        </mxCell>
        <mxCell id="F9jJWtzdqdsVhb2H7EBQ-63" value="&lt;b&gt;main_py&lt;/b&gt;" style="html=1;whiteSpace=wrap;" vertex="1" parent="1">
          <mxGeometry x="555" y="50" width="110" height="50" as="geometry" />
        </mxCell>
        <mxCell id="F9jJWtzdqdsVhb2H7EBQ-64" value="AddressBook" style="swimlane;fontStyle=1;align=center;verticalAlign=top;childLayout=stackLayout;horizontal=1;startSize=30;horizontalStack=0;resizeParent=1;resizeParentMax=0;resizeLast=0;collapsible=1;marginBottom=0;whiteSpace=wrap;html=1;fillColor=#dae8fc;strokeColor=#6c8ebf;" vertex="1" parent="1">
          <mxGeometry x="505" y="163" width="210" height="82" as="geometry" />
        </mxCell>
        <mxCell id="F9jJWtzdqdsVhb2H7EBQ-65" value="- data: Dict" style="text;align=left;verticalAlign=top;spacingLeft=4;spacingRight=4;overflow=hidden;rotatable=0;points=[[0,0.5],[1,0.5]];portConstraint=eastwest;whiteSpace=wrap;html=1;fontStyle=0;fillColor=#f9f7ed;strokeColor=#36393d;" vertex="1" parent="F9jJWtzdqdsVhb2H7EBQ-64">
          <mxGeometry y="30" width="210" height="26" as="geometry" />
        </mxCell>
        <mxCell id="F9jJWtzdqdsVhb2H7EBQ-67" value="+ add_record" style="text;strokeColor=#666666;fillColor=#f5f5f5;align=left;verticalAlign=top;spacingLeft=4;spacingRight=4;overflow=hidden;rotatable=0;points=[[0,0.5],[1,0.5]];portConstraint=eastwest;whiteSpace=wrap;html=1;fontColor=#333333;fontStyle=0" vertex="1" parent="F9jJWtzdqdsVhb2H7EBQ-64">
          <mxGeometry y="56" width="210" height="26" as="geometry" />
        </mxCell>
        <mxCell id="F9jJWtzdqdsVhb2H7EBQ-68" value="+ find" style="text;align=left;verticalAlign=top;spacingLeft=4;spacingRight=4;overflow=hidden;rotatable=0;points=[[0,0.5],[1,0.5]];portConstraint=eastwest;whiteSpace=wrap;html=1;fillColor=#f5f5f5;fontColor=#333333;strokeColor=#666666;fontStyle=0" vertex="1" parent="1">
          <mxGeometry x="505" y="245" width="210" height="26" as="geometry" />
        </mxCell>
        <mxCell id="F9jJWtzdqdsVhb2H7EBQ-69" value="+ delete" style="text;align=left;verticalAlign=top;spacingLeft=4;spacingRight=4;overflow=hidden;rotatable=0;points=[[0,0.5],[1,0.5]];portConstraint=eastwest;whiteSpace=wrap;html=1;fillColor=#f5f5f5;fontColor=#333333;strokeColor=#666666;fontStyle=0" vertex="1" parent="1">
          <mxGeometry x="505" y="271" width="210" height="26" as="geometry" />
        </mxCell>
        <mxCell id="F9jJWtzdqdsVhb2H7EBQ-70" value="+ save_to_file" style="text;align=left;verticalAlign=top;spacingLeft=4;spacingRight=4;overflow=hidden;rotatable=0;points=[[0,0.5],[1,0.5]];portConstraint=eastwest;whiteSpace=wrap;html=1;fillColor=#f5f5f5;fontColor=#333333;strokeColor=#666666;fontStyle=0" vertex="1" parent="1">
          <mxGeometry x="505" y="297" width="210" height="26" as="geometry" />
        </mxCell>
        <mxCell id="F9jJWtzdqdsVhb2H7EBQ-71" value="+ restore_from_file" style="text;align=left;verticalAlign=top;spacingLeft=4;spacingRight=4;overflow=hidden;rotatable=0;points=[[0,0.5],[1,0.5]];portConstraint=eastwest;whiteSpace=wrap;html=1;fillColor=#f5f5f5;fontColor=#333333;strokeColor=#666666;fontStyle=0" vertex="1" parent="1">
          <mxGeometry x="505" y="323" width="210" height="26" as="geometry" />
        </mxCell>
        <mxCell id="F9jJWtzdqdsVhb2H7EBQ-72" value="+ search" style="text;align=left;verticalAlign=top;spacingLeft=4;spacingRight=4;overflow=hidden;rotatable=0;points=[[0,0.5],[1,0.5]];portConstraint=eastwest;whiteSpace=wrap;html=1;fillColor=#f5f5f5;fontColor=#333333;strokeColor=#666666;fontStyle=0" vertex="1" parent="1">
          <mxGeometry x="505" y="349" width="210" height="26" as="geometry" />
        </mxCell>
        <mxCell id="F9jJWtzdqdsVhb2H7EBQ-73" value="+ validate_input" style="text;align=left;verticalAlign=top;spacingLeft=4;spacingRight=4;overflow=hidden;rotatable=0;points=[[0,0.5],[1,0.5]];portConstraint=eastwest;whiteSpace=wrap;html=1;fillColor=#f5f5f5;fontColor=#333333;strokeColor=#666666;fontStyle=0" vertex="1" parent="1">
          <mxGeometry x="505" y="375" width="210" height="26" as="geometry" />
        </mxCell>
        <mxCell id="F9jJWtzdqdsVhb2H7EBQ-74" value="+ get_contact" style="text;align=left;verticalAlign=top;spacingLeft=4;spacingRight=4;overflow=hidden;rotatable=0;points=[[0,0.5],[1,0.5]];portConstraint=eastwest;whiteSpace=wrap;html=1;fillColor=#f5f5f5;fontColor=#333333;strokeColor=#666666;fontStyle=0" vertex="1" parent="1">
          <mxGeometry x="505" y="401" width="210" height="26" as="geometry" />
        </mxCell>
        <mxCell id="F9jJWtzdqdsVhb2H7EBQ-75" value="+ __iter__" style="text;align=left;verticalAlign=top;spacingLeft=4;spacingRight=4;overflow=hidden;rotatable=0;points=[[0,0.5],[1,0.5]];portConstraint=eastwest;whiteSpace=wrap;html=1;fillColor=#f5f5f5;fontColor=#333333;strokeColor=#666666;fontStyle=0" vertex="1" parent="1">
          <mxGeometry x="505" y="427" width="210" height="26" as="geometry" />
        </mxCell>
        <mxCell id="F9jJWtzdqdsVhb2H7EBQ-76" value="- __repr__" style="text;align=left;verticalAlign=top;spacingLeft=4;spacingRight=4;overflow=hidden;rotatable=0;points=[[0,0.5],[1,0.5]];portConstraint=eastwest;whiteSpace=wrap;html=1;fillColor=#f5f5f5;fontColor=#333333;strokeColor=#666666;fontStyle=0" vertex="1" parent="1">
          <mxGeometry x="505" y="453" width="210" height="26" as="geometry" />
        </mxCell>
        <mxCell id="F9jJWtzdqdsVhb2H7EBQ-86" value="AddressBookIterator" style="swimlane;fontStyle=1;align=center;verticalAlign=top;childLayout=stackLayout;horizontal=1;startSize=30;horizontalStack=0;resizeParent=1;resizeParentMax=0;resizeLast=0;collapsible=1;marginBottom=0;whiteSpace=wrap;html=1;fillColor=#dae8fc;strokeColor=#6c8ebf;" vertex="1" parent="1">
          <mxGeometry x="900" y="163" width="210" height="82" as="geometry" />
        </mxCell>
        <mxCell id="F9jJWtzdqdsVhb2H7EBQ-87" value="- records: List[Record]" style="text;align=left;verticalAlign=top;spacingLeft=4;spacingRight=4;overflow=hidden;rotatable=0;points=[[0,0.5],[1,0.5]];portConstraint=eastwest;whiteSpace=wrap;html=1;fontStyle=0;fillColor=#f9f7ed;strokeColor=#36393d;" vertex="1" parent="F9jJWtzdqdsVhb2H7EBQ-86">
          <mxGeometry y="30" width="210" height="26" as="geometry" />
        </mxCell>
        <mxCell id="F9jJWtzdqdsVhb2H7EBQ-88" value="- page_size: int" style="text;strokeColor=#36393d;fillColor=#f9f7ed;align=left;verticalAlign=top;spacingLeft=4;spacingRight=4;overflow=hidden;rotatable=0;points=[[0,0.5],[1,0.5]];portConstraint=eastwest;whiteSpace=wrap;html=1;fontStyle=0" vertex="1" parent="F9jJWtzdqdsVhb2H7EBQ-86">
          <mxGeometry y="56" width="210" height="26" as="geometry" />
        </mxCell>
        <mxCell id="F9jJWtzdqdsVhb2H7EBQ-89" value="- counter: int" style="text;align=left;verticalAlign=top;spacingLeft=4;spacingRight=4;overflow=hidden;rotatable=0;points=[[0,0.5],[1,0.5]];portConstraint=eastwest;whiteSpace=wrap;html=1;fillColor=#f9f7ed;strokeColor=#36393d;fontStyle=0" vertex="1" parent="1">
          <mxGeometry x="900" y="245" width="210" height="26" as="geometry" />
        </mxCell>
        <mxCell id="F9jJWtzdqdsVhb2H7EBQ-90" value="- page: int" style="text;align=left;verticalAlign=top;spacingLeft=4;spacingRight=4;overflow=hidden;rotatable=0;points=[[0,0.5],[1,0.5]];portConstraint=eastwest;whiteSpace=wrap;html=1;fillColor=#f9f7ed;strokeColor=#36393d;fontStyle=0" vertex="1" parent="1">
          <mxGeometry x="900" y="271" width="210" height="26" as="geometry" />
        </mxCell>
        <mxCell id="F9jJWtzdqdsVhb2H7EBQ-91" value="+ __next__(): List[Record]" style="text;align=left;verticalAlign=top;spacingLeft=4;spacingRight=4;overflow=hidden;rotatable=0;points=[[0,0.5],[1,0.5]];portConstraint=eastwest;whiteSpace=wrap;html=1;fillColor=#f5f5f5;fontColor=#333333;strokeColor=#666666;fontStyle=0" vertex="1" parent="1">
          <mxGeometry x="900" y="297" width="210" height="26" as="geometry" />
        </mxCell>
        <mxCell id="F9jJWtzdqdsVhb2H7EBQ-98" value="Record" style="swimlane;fontStyle=1;align=center;verticalAlign=top;childLayout=stackLayout;horizontal=1;startSize=30;horizontalStack=0;resizeParent=1;resizeParentMax=0;resizeLast=0;collapsible=1;marginBottom=0;whiteSpace=wrap;html=1;fillColor=#dae8fc;strokeColor=#6c8ebf;" vertex="1" parent="1">
          <mxGeometry x="890" y="490" width="210" height="82" as="geometry" />
        </mxCell>
        <mxCell id="F9jJWtzdqdsVhb2H7EBQ-99" value="- name: Name" style="text;align=left;verticalAlign=top;spacingLeft=4;spacingRight=4;overflow=hidden;rotatable=0;points=[[0,0.5],[1,0.5]];portConstraint=eastwest;whiteSpace=wrap;html=1;fontStyle=0;fillColor=#f9f7ed;strokeColor=#36393d;" vertex="1" parent="F9jJWtzdqdsVhb2H7EBQ-98">
          <mxGeometry y="30" width="210" height="26" as="geometry" />
        </mxCell>
        <mxCell id="F9jJWtzdqdsVhb2H7EBQ-100" value="- birthday: Birthday" style="text;strokeColor=#36393d;fillColor=#f9f7ed;align=left;verticalAlign=top;spacingLeft=4;spacingRight=4;overflow=hidden;rotatable=0;points=[[0,0.5],[1,0.5]];portConstraint=eastwest;whiteSpace=wrap;html=1;fontStyle=0" vertex="1" parent="F9jJWtzdqdsVhb2H7EBQ-98">
          <mxGeometry y="56" width="210" height="26" as="geometry" />
        </mxCell>
        <mxCell id="F9jJWtzdqdsVhb2H7EBQ-101" value="- phone: Phone" style="text;align=left;verticalAlign=top;spacingLeft=4;spacingRight=4;overflow=hidden;rotatable=0;points=[[0,0.5],[1,0.5]];portConstraint=eastwest;whiteSpace=wrap;html=1;fillColor=#f9f7ed;strokeColor=#36393d;fontStyle=0" vertex="1" parent="1">
          <mxGeometry x="890" y="572" width="210" height="26" as="geometry" />
        </mxCell>
        <mxCell id="F9jJWtzdqdsVhb2H7EBQ-102" value="- phones: List[Phone]" style="text;align=left;verticalAlign=top;spacingLeft=4;spacingRight=4;overflow=hidden;rotatable=0;points=[[0,0.5],[1,0.5]];portConstraint=eastwest;whiteSpace=wrap;html=1;fillColor=#f9f7ed;strokeColor=#36393d;fontStyle=0" vertex="1" parent="1">
          <mxGeometry x="890" y="598" width="210" height="26" as="geometry" />
        </mxCell>
        <mxCell id="F9jJWtzdqdsVhb2H7EBQ-103" value="- email: Email" style="text;align=left;verticalAlign=top;spacingLeft=4;spacingRight=4;overflow=hidden;rotatable=0;points=[[0,0.5],[1,0.5]];portConstraint=eastwest;whiteSpace=wrap;html=1;fillColor=#f9f7ed;strokeColor=#36393d;fontStyle=0" vertex="1" parent="1">
          <mxGeometry x="890" y="624" width="210" height="26" as="geometry" />
        </mxCell>
        <mxCell id="F9jJWtzdqdsVhb2H7EBQ-104" value="- address: Address" style="text;align=left;verticalAlign=top;spacingLeft=4;spacingRight=4;overflow=hidden;rotatable=0;points=[[0,0.5],[1,0.5]];portConstraint=eastwest;whiteSpace=wrap;html=1;fillColor=#f9f7ed;strokeColor=#36393d;fontStyle=0" vertex="1" parent="1">
          <mxGeometry x="890" y="650" width="210" height="26" as="geometry" />
        </mxCell>
        <mxCell id="F9jJWtzdqdsVhb2H7EBQ-105" value="- notes: List[Note]" style="text;align=left;verticalAlign=top;spacingLeft=4;spacingRight=4;overflow=hidden;rotatable=0;points=[[0,0.5],[1,0.5]];portConstraint=eastwest;whiteSpace=wrap;html=1;fillColor=#f9f7ed;strokeColor=#36393d;fontStyle=0" vertex="1" parent="1">
          <mxGeometry x="890" y="676" width="210" height="26" as="geometry" />
        </mxCell>
        <mxCell id="F9jJWtzdqdsVhb2H7EBQ-106" value="+ add_phone" style="text;align=left;verticalAlign=top;spacingLeft=4;spacingRight=4;overflow=hidden;rotatable=0;points=[[0,0.5],[1,0.5]];portConstraint=eastwest;whiteSpace=wrap;html=1;fillColor=#f5f5f5;fontColor=#333333;strokeColor=#666666;fontStyle=0" vertex="1" parent="1">
          <mxGeometry x="890" y="702" width="210" height="26" as="geometry" />
        </mxCell>
        <mxCell id="F9jJWtzdqdsVhb2H7EBQ-107" value="+ remove_phone" style="text;align=left;verticalAlign=top;spacingLeft=4;spacingRight=4;overflow=hidden;rotatable=0;points=[[0,0.5],[1,0.5]];portConstraint=eastwest;whiteSpace=wrap;html=1;fillColor=#f5f5f5;fontColor=#333333;strokeColor=#666666;fontStyle=0" vertex="1" parent="1">
          <mxGeometry x="890" y="728" width="210" height="26" as="geometry" />
        </mxCell>
        <mxCell id="F9jJWtzdqdsVhb2H7EBQ-108" value="+ edit_email" style="text;align=left;verticalAlign=top;spacingLeft=4;spacingRight=4;overflow=hidden;rotatable=0;points=[[0,0.5],[1,0.5]];portConstraint=eastwest;whiteSpace=wrap;html=1;fillColor=#f5f5f5;fontColor=#333333;strokeColor=#666666;fontStyle=0" vertex="1" parent="1">
          <mxGeometry x="890" y="754" width="210" height="26" as="geometry" />
        </mxCell>
        <mxCell id="F9jJWtzdqdsVhb2H7EBQ-109" value="+ show_notes" style="text;align=left;verticalAlign=top;spacingLeft=4;spacingRight=4;overflow=hidden;rotatable=0;points=[[0,0.5],[1,0.5]];portConstraint=eastwest;whiteSpace=wrap;html=1;fillColor=#f5f5f5;fontColor=#333333;strokeColor=#666666;fontStyle=0" vertex="1" parent="1">
          <mxGeometry x="890" y="780" width="210" height="26" as="geometry" />
        </mxCell>
        <mxCell id="F9jJWtzdqdsVhb2H7EBQ-110" value="+ find_note" style="text;align=left;verticalAlign=top;spacingLeft=4;spacingRight=4;overflow=hidden;rotatable=0;points=[[0,0.5],[1,0.5]];portConstraint=eastwest;whiteSpace=wrap;html=1;fillColor=#f5f5f5;fontColor=#333333;strokeColor=#666666;fontStyle=0" vertex="1" parent="1">
          <mxGeometry x="890" y="806" width="210" height="26" as="geometry" />
        </mxCell>
        <mxCell id="F9jJWtzdqdsVhb2H7EBQ-111" value="+ delete_note" style="text;align=left;verticalAlign=top;spacingLeft=4;spacingRight=4;overflow=hidden;rotatable=0;points=[[0,0.5],[1,0.5]];portConstraint=eastwest;whiteSpace=wrap;html=1;fillColor=#f5f5f5;fontColor=#333333;strokeColor=#666666;fontStyle=0" vertex="1" parent="1">
          <mxGeometry x="890" y="830" width="210" height="26" as="geometry" />
        </mxCell>
        <mxCell id="F9jJWtzdqdsVhb2H7EBQ-112" value="+ add_note" style="text;align=left;verticalAlign=top;spacingLeft=4;spacingRight=4;overflow=hidden;rotatable=0;points=[[0,0.5],[1,0.5]];portConstraint=eastwest;whiteSpace=wrap;html=1;fillColor=#f5f5f5;fontColor=#333333;strokeColor=#666666;fontStyle=0" vertex="1" parent="1">
          <mxGeometry x="890" y="856" width="210" height="26" as="geometry" />
        </mxCell>
        <mxCell id="F9jJWtzdqdsVhb2H7EBQ-113" value="+ edit_note" style="text;align=left;verticalAlign=top;spacingLeft=4;spacingRight=4;overflow=hidden;rotatable=0;points=[[0,0.5],[1,0.5]];portConstraint=eastwest;whiteSpace=wrap;html=1;fillColor=#f5f5f5;fontColor=#333333;strokeColor=#666666;fontStyle=0" vertex="1" parent="1">
          <mxGeometry x="890" y="882" width="210" height="26" as="geometry" />
        </mxCell>
        <mxCell id="F9jJWtzdqdsVhb2H7EBQ-114" value="+ add_tag" style="text;align=left;verticalAlign=top;spacingLeft=4;spacingRight=4;overflow=hidden;rotatable=0;points=[[0,0.5],[1,0.5]];portConstraint=eastwest;whiteSpace=wrap;html=1;fillColor=#f5f5f5;fontColor=#333333;strokeColor=#666666;fontStyle=0" vertex="1" parent="1">
          <mxGeometry x="890" y="908" width="210" height="26" as="geometry" />
        </mxCell>
        <mxCell id="F9jJWtzdqdsVhb2H7EBQ-115" value="+ remove_tag" style="text;align=left;verticalAlign=top;spacingLeft=4;spacingRight=4;overflow=hidden;rotatable=0;points=[[0,0.5],[1,0.5]];portConstraint=eastwest;whiteSpace=wrap;html=1;fillColor=#f5f5f5;fontColor=#333333;strokeColor=#666666;fontStyle=0" vertex="1" parent="1">
          <mxGeometry x="890" y="934" width="210" height="26" as="geometry" />
        </mxCell>
        <mxCell id="F9jJWtzdqdsVhb2H7EBQ-116" value="+ sort_notes" style="text;align=left;verticalAlign=top;spacingLeft=4;spacingRight=4;overflow=hidden;rotatable=0;points=[[0,0.5],[1,0.5]];portConstraint=eastwest;whiteSpace=wrap;html=1;fillColor=#f5f5f5;fontColor=#333333;strokeColor=#666666;fontStyle=0" vertex="1" parent="1">
          <mxGeometry x="890" y="960" width="210" height="26" as="geometry" />
        </mxCell>
        <mxCell id="F9jJWtzdqdsVhb2H7EBQ-117" value="+ days_to_birthday" style="text;align=left;verticalAlign=top;spacingLeft=4;spacingRight=4;overflow=hidden;rotatable=0;points=[[0,0.5],[1,0.5]];portConstraint=eastwest;whiteSpace=wrap;html=1;fillColor=#f5f5f5;fontColor=#333333;strokeColor=#666666;fontStyle=0" vertex="1" parent="1">
          <mxGeometry x="890" y="986" width="210" height="26" as="geometry" />
        </mxCell>
        <mxCell id="F9jJWtzdqdsVhb2H7EBQ-118" value="+ __str__" style="text;align=left;verticalAlign=top;spacingLeft=4;spacingRight=4;overflow=hidden;rotatable=0;points=[[0,0.5],[1,0.5]];portConstraint=eastwest;whiteSpace=wrap;html=1;fillColor=#f5f5f5;fontColor=#333333;strokeColor=#666666;fontStyle=0" vertex="1" parent="1">
          <mxGeometry x="890" y="1012" width="210" height="26" as="geometry" />
        </mxCell>
        <mxCell id="F9jJWtzdqdsVhb2H7EBQ-119" value="&lt;b&gt;Note&lt;/b&gt;" style="swimlane;fontStyle=0;childLayout=stackLayout;horizontal=1;startSize=26;fillColor=#cce5ff;horizontalStack=0;resizeParent=1;resizeParentMax=0;resizeLast=0;collapsible=1;marginBottom=0;whiteSpace=wrap;html=1;strokeColor=#36393d;" vertex="1" parent="1">
          <mxGeometry x="205" y="660" width="67.5" height="52" as="geometry" />
        </mxCell>
        <mxCell id="F9jJWtzdqdsVhb2H7EBQ-120" value="- value: str" style="text;strokeColor=#36393d;fillColor=#eeeeee;align=left;verticalAlign=top;spacingLeft=4;spacingRight=4;overflow=hidden;rotatable=0;points=[[0,0.5],[1,0.5]];portConstraint=eastwest;whiteSpace=wrap;html=1;" vertex="1" parent="F9jJWtzdqdsVhb2H7EBQ-119">
          <mxGeometry y="26" width="67.5" height="26" as="geometry" />
        </mxCell>
        <mxCell id="F9jJWtzdqdsVhb2H7EBQ-123" value="&lt;b&gt;Address&lt;/b&gt;" style="swimlane;fontStyle=0;childLayout=stackLayout;horizontal=1;startSize=26;fillColor=#cce5ff;horizontalStack=0;resizeParent=1;resizeParentMax=0;resizeLast=0;collapsible=1;marginBottom=0;whiteSpace=wrap;html=1;strokeColor=#36393d;" vertex="1" parent="1">
          <mxGeometry x="285" y="660" width="85" height="52" as="geometry" />
        </mxCell>
        <mxCell id="F9jJWtzdqdsVhb2H7EBQ-124" value="- value: str" style="text;strokeColor=#36393d;fillColor=#eeeeee;align=left;verticalAlign=top;spacingLeft=4;spacingRight=4;overflow=hidden;rotatable=0;points=[[0,0.5],[1,0.5]];portConstraint=eastwest;whiteSpace=wrap;html=1;" vertex="1" parent="F9jJWtzdqdsVhb2H7EBQ-123">
          <mxGeometry y="26" width="85" height="26" as="geometry" />
        </mxCell>
        <mxCell id="F9jJWtzdqdsVhb2H7EBQ-126" value="&lt;b&gt;Phone&lt;/b&gt;" style="swimlane;fontStyle=0;childLayout=stackLayout;horizontal=1;startSize=26;fillColor=#cce5ff;horizontalStack=0;resizeParent=1;resizeParentMax=0;resizeLast=0;collapsible=1;marginBottom=0;whiteSpace=wrap;html=1;strokeColor=#36393d;" vertex="1" parent="1">
          <mxGeometry x="385" y="660" width="85" height="52" as="geometry" />
        </mxCell>
        <mxCell id="F9jJWtzdqdsVhb2H7EBQ-127" value="- value: str" style="text;strokeColor=#36393d;fillColor=#eeeeee;align=left;verticalAlign=top;spacingLeft=4;spacingRight=4;overflow=hidden;rotatable=0;points=[[0,0.5],[1,0.5]];portConstraint=eastwest;whiteSpace=wrap;html=1;" vertex="1" parent="F9jJWtzdqdsVhb2H7EBQ-126">
          <mxGeometry y="26" width="85" height="26" as="geometry" />
        </mxCell>
        <mxCell id="F9jJWtzdqdsVhb2H7EBQ-128" value="&lt;b&gt;Email&lt;/b&gt;" style="swimlane;fontStyle=0;childLayout=stackLayout;horizontal=1;startSize=26;fillColor=#cce5ff;horizontalStack=0;resizeParent=1;resizeParentMax=0;resizeLast=0;collapsible=1;marginBottom=0;whiteSpace=wrap;html=1;strokeColor=#36393d;" vertex="1" parent="1">
          <mxGeometry x="480" y="660" width="70" height="52" as="geometry" />
        </mxCell>
        <mxCell id="F9jJWtzdqdsVhb2H7EBQ-129" value="- value: str" style="text;strokeColor=#36393d;fillColor=#eeeeee;align=left;verticalAlign=top;spacingLeft=4;spacingRight=4;overflow=hidden;rotatable=0;points=[[0,0.5],[1,0.5]];portConstraint=eastwest;whiteSpace=wrap;html=1;" vertex="1" parent="F9jJWtzdqdsVhb2H7EBQ-128">
          <mxGeometry y="26" width="70" height="26" as="geometry" />
        </mxCell>
        <mxCell id="F9jJWtzdqdsVhb2H7EBQ-130" value="&lt;b&gt;Birthday&lt;/b&gt;" style="swimlane;fontStyle=0;childLayout=stackLayout;horizontal=1;startSize=26;fillColor=#cce5ff;horizontalStack=0;resizeParent=1;resizeParentMax=0;resizeLast=0;collapsible=1;marginBottom=0;whiteSpace=wrap;html=1;strokeColor=#36393d;" vertex="1" parent="1">
          <mxGeometry x="562.5" y="660" width="85" height="52" as="geometry" />
        </mxCell>
        <mxCell id="F9jJWtzdqdsVhb2H7EBQ-131" value="- value: str" style="text;strokeColor=#36393d;fillColor=#eeeeee;align=left;verticalAlign=top;spacingLeft=4;spacingRight=4;overflow=hidden;rotatable=0;points=[[0,0.5],[1,0.5]];portConstraint=eastwest;whiteSpace=wrap;html=1;" vertex="1" parent="F9jJWtzdqdsVhb2H7EBQ-130">
          <mxGeometry y="26" width="85" height="26" as="geometry" />
        </mxCell>
        <mxCell id="F9jJWtzdqdsVhb2H7EBQ-132" value="&lt;b&gt;Name&lt;/b&gt;" style="swimlane;fontStyle=0;childLayout=stackLayout;horizontal=1;startSize=26;fillColor=#cce5ff;horizontalStack=0;resizeParent=1;resizeParentMax=0;resizeLast=0;collapsible=1;marginBottom=0;whiteSpace=wrap;html=1;strokeColor=#36393d;" vertex="1" parent="1">
          <mxGeometry x="660" y="660" width="75" height="52" as="geometry" />
        </mxCell>
        <mxCell id="F9jJWtzdqdsVhb2H7EBQ-133" value="- value: str" style="text;strokeColor=#36393d;fillColor=#eeeeee;align=left;verticalAlign=top;spacingLeft=4;spacingRight=4;overflow=hidden;rotatable=0;points=[[0,0.5],[1,0.5]];portConstraint=eastwest;whiteSpace=wrap;html=1;" vertex="1" parent="F9jJWtzdqdsVhb2H7EBQ-132">
          <mxGeometry y="26" width="75" height="26" as="geometry" />
        </mxCell>
        <mxCell id="F9jJWtzdqdsVhb2H7EBQ-134" value="Field" style="swimlane;fontStyle=1;align=center;verticalAlign=top;childLayout=stackLayout;horizontal=1;startSize=26;horizontalStack=0;resizeParent=1;resizeParentMax=0;resizeLast=0;collapsible=1;marginBottom=0;whiteSpace=wrap;html=1;fillColor=#cce5ff;strokeColor=#36393d;" vertex="1" parent="1">
          <mxGeometry x="10" y="660" width="160" height="78" as="geometry" />
        </mxCell>
        <mxCell id="F9jJWtzdqdsVhb2H7EBQ-135" value="- __value: Any" style="text;strokeColor=#36393d;fillColor=#f9f7ed;align=left;verticalAlign=top;spacingLeft=4;spacingRight=4;overflow=hidden;rotatable=0;points=[[0,0.5],[1,0.5]];portConstraint=eastwest;whiteSpace=wrap;html=1;" vertex="1" parent="F9jJWtzdqdsVhb2H7EBQ-134">
          <mxGeometry y="26" width="160" height="26" as="geometry" />
        </mxCell>
        <mxCell id="F9jJWtzdqdsVhb2H7EBQ-137" value="+ value: Any" style="text;strokeColor=#36393d;fillColor=#eeeeee;align=left;verticalAlign=top;spacingLeft=4;spacingRight=4;overflow=hidden;rotatable=0;points=[[0,0.5],[1,0.5]];portConstraint=eastwest;whiteSpace=wrap;html=1;" vertex="1" parent="F9jJWtzdqdsVhb2H7EBQ-134">
          <mxGeometry y="52" width="160" height="26" as="geometry" />
        </mxCell>
        <mxCell id="F9jJWtzdqdsVhb2H7EBQ-147" value="ConsoleUserInterface" style="swimlane;fontStyle=1;align=center;verticalAlign=top;childLayout=stackLayout;horizontal=1;startSize=26;horizontalStack=0;resizeParent=1;resizeParentMax=0;resizeLast=0;collapsible=1;marginBottom=0;whiteSpace=wrap;html=1;fillColor=#cce5ff;strokeColor=#36393d;" vertex="1" parent="1">
          <mxGeometry x="275" y="160" width="210" height="78" as="geometry" />
        </mxCell>
        <mxCell id="F9jJWtzdqdsVhb2H7EBQ-148" value="+print_menu(menu_options)" style="text;strokeColor=#36393d;fillColor=#eeeeee;align=left;verticalAlign=top;spacingLeft=4;spacingRight=4;overflow=hidden;rotatable=0;points=[[0,0.5],[1,0.5]];portConstraint=eastwest;whiteSpace=wrap;html=1;" vertex="1" parent="F9jJWtzdqdsVhb2H7EBQ-147">
          <mxGeometry y="26" width="210" height="26" as="geometry" />
        </mxCell>
        <mxCell id="F9jJWtzdqdsVhb2H7EBQ-149" value="+ get_user_input(prompt)" style="text;strokeColor=#36393d;fillColor=#eeeeee;align=left;verticalAlign=top;spacingLeft=4;spacingRight=4;overflow=hidden;rotatable=0;points=[[0,0.5],[1,0.5]];portConstraint=eastwest;whiteSpace=wrap;html=1;" vertex="1" parent="F9jJWtzdqdsVhb2H7EBQ-147">
          <mxGeometry y="52" width="210" height="26" as="geometry" />
        </mxCell>
        <mxCell id="F9jJWtzdqdsVhb2H7EBQ-150" value="+ print_message(message, style)" style="text;strokeColor=#36393d;fillColor=#eeeeee;align=left;verticalAlign=top;spacingLeft=4;spacingRight=4;overflow=hidden;rotatable=0;points=[[0,0.5],[1,0.5]];portConstraint=eastwest;whiteSpace=wrap;html=1;" vertex="1" parent="1">
          <mxGeometry x="275" y="238" width="210" height="26" as="geometry" />
        </mxCell>
        <mxCell id="F9jJWtzdqdsVhb2H7EBQ-151" value="+ print_contact(contact)" style="text;strokeColor=#36393d;fillColor=#eeeeee;align=left;verticalAlign=top;spacingLeft=4;spacingRight=4;overflow=hidden;rotatable=0;points=[[0,0.5],[1,0.5]];portConstraint=eastwest;whiteSpace=wrap;html=1;" vertex="1" parent="1">
          <mxGeometry x="275" y="264" width="210" height="26" as="geometry" />
        </mxCell>
        <mxCell id="F9jJWtzdqdsVhb2H7EBQ-153" value="&lt;b&gt;UserDict&lt;/b&gt;" style="html=1;dropTarget=0;whiteSpace=wrap;" vertex="1" parent="1">
          <mxGeometry x="435" y="401" width="65" height="35" as="geometry" />
        </mxCell>
        <mxCell id="F9jJWtzdqdsVhb2H7EBQ-156" value="" style="endArrow=block;dashed=1;endFill=0;endSize=12;html=1;rounded=0;entryX=0.75;entryY=0;entryDx=0;entryDy=0;exitX=0;exitY=0.25;exitDx=0;exitDy=0;" edge="1" parent="1" source="F9jJWtzdqdsVhb2H7EBQ-64" target="F9jJWtzdqdsVhb2H7EBQ-153">
          <mxGeometry width="160" relative="1" as="geometry">
            <mxPoint x="505" y="414" as="sourcePoint" />
            <mxPoint x="685" y="300" as="targetPoint" />
          </mxGeometry>
        </mxCell>
        <mxCell id="F9jJWtzdqdsVhb2H7EBQ-157" value="Use" style="endArrow=open;endSize=12;dashed=1;html=1;rounded=0;" edge="1" parent="1">
          <mxGeometry width="160" relative="1" as="geometry">
            <mxPoint x="615" y="100" as="sourcePoint" />
            <mxPoint x="615" y="160" as="targetPoint" />
            <Array as="points" />
            <mxPoint as="offset" />
          </mxGeometry>
        </mxCell>
        <mxCell id="F9jJWtzdqdsVhb2H7EBQ-158" value="&lt;b&gt;Theme&lt;/b&gt;" style="html=1;dropTarget=0;whiteSpace=wrap;" vertex="1" parent="1">
          <mxGeometry x="735" y="110" width="80" height="37" as="geometry" />
        </mxCell>
        <mxCell id="F9jJWtzdqdsVhb2H7EBQ-161" value="&lt;b&gt;Console&lt;/b&gt;" style="html=1;dropTarget=0;whiteSpace=wrap;" vertex="1" parent="1">
          <mxGeometry x="825" y="110" width="85" height="37" as="geometry" />
        </mxCell>
        <mxCell id="F9jJWtzdqdsVhb2H7EBQ-163" value="Data" style="endArrow=open;endSize=12;dashed=1;html=1;rounded=0;entryX=0;entryY=0.25;entryDx=0;entryDy=0;" edge="1" parent="1" target="F9jJWtzdqdsVhb2H7EBQ-98">
          <mxGeometry width="160" relative="1" as="geometry">
            <mxPoint x="715" y="180" as="sourcePoint" />
            <mxPoint x="815" y="220" as="targetPoint" />
            <Array as="points" />
            <mxPoint as="offset" />
          </mxGeometry>
        </mxCell>
        <mxCell id="F9jJWtzdqdsVhb2H7EBQ-165" value="Use" style="endArrow=open;endSize=12;dashed=1;html=1;rounded=0;entryX=0.5;entryY=0;entryDx=0;entryDy=0;exitX=0;exitY=1;exitDx=0;exitDy=0;" edge="1" parent="1" source="F9jJWtzdqdsVhb2H7EBQ-63" target="F9jJWtzdqdsVhb2H7EBQ-147">
          <mxGeometry width="160" relative="1" as="geometry">
            <mxPoint x="625" y="110" as="sourcePoint" />
            <mxPoint x="625" y="170" as="targetPoint" />
            <Array as="points" />
          </mxGeometry>
        </mxCell>
        <mxCell id="F9jJWtzdqdsVhb2H7EBQ-166" value="" style="endArrow=block;dashed=1;endFill=0;endSize=12;html=1;rounded=0;entryX=1;entryY=0.5;entryDx=0;entryDy=0;exitX=0;exitY=0.5;exitDx=0;exitDy=0;" edge="1" parent="1">
          <mxGeometry width="160" relative="1" as="geometry">
            <mxPoint x="275" y="170" as="sourcePoint" />
            <mxPoint x="235" y="170" as="targetPoint" />
          </mxGeometry>
        </mxCell>
        <mxCell id="F9jJWtzdqdsVhb2H7EBQ-167" value="UserInterface" style="swimlane;fontStyle=1;align=center;verticalAlign=top;childLayout=stackLayout;horizontal=1;startSize=26;horizontalStack=0;resizeParent=1;resizeParentMax=0;resizeLast=0;collapsible=1;marginBottom=0;whiteSpace=wrap;html=1;fillColor=#cce5ff;strokeColor=#36393d;" vertex="1" parent="1">
          <mxGeometry x="25" y="160" width="210" height="78" as="geometry" />
        </mxCell>
        <mxCell id="F9jJWtzdqdsVhb2H7EBQ-168" value="+print_menu(menu_options)" style="text;strokeColor=#36393d;fillColor=#eeeeee;align=left;verticalAlign=top;spacingLeft=4;spacingRight=4;overflow=hidden;rotatable=0;points=[[0,0.5],[1,0.5]];portConstraint=eastwest;whiteSpace=wrap;html=1;" vertex="1" parent="F9jJWtzdqdsVhb2H7EBQ-167">
          <mxGeometry y="26" width="210" height="26" as="geometry" />
        </mxCell>
        <mxCell id="F9jJWtzdqdsVhb2H7EBQ-169" value="+ get_user_input(prompt)" style="text;strokeColor=#36393d;fillColor=#eeeeee;align=left;verticalAlign=top;spacingLeft=4;spacingRight=4;overflow=hidden;rotatable=0;points=[[0,0.5],[1,0.5]];portConstraint=eastwest;whiteSpace=wrap;html=1;" vertex="1" parent="F9jJWtzdqdsVhb2H7EBQ-167">
          <mxGeometry y="52" width="210" height="26" as="geometry" />
        </mxCell>
        <mxCell id="F9jJWtzdqdsVhb2H7EBQ-170" value="+ print_message(message, style)" style="text;strokeColor=#36393d;fillColor=#eeeeee;align=left;verticalAlign=top;spacingLeft=4;spacingRight=4;overflow=hidden;rotatable=0;points=[[0,0.5],[1,0.5]];portConstraint=eastwest;whiteSpace=wrap;html=1;" vertex="1" parent="1">
          <mxGeometry x="25" y="238" width="210" height="26" as="geometry" />
        </mxCell>
        <mxCell id="F9jJWtzdqdsVhb2H7EBQ-171" value="+ print_contact(contact)" style="text;strokeColor=#36393d;fillColor=#eeeeee;align=left;verticalAlign=top;spacingLeft=4;spacingRight=4;overflow=hidden;rotatable=0;points=[[0,0.5],[1,0.5]];portConstraint=eastwest;whiteSpace=wrap;html=1;" vertex="1" parent="1">
          <mxGeometry x="25" y="264" width="210" height="26" as="geometry" />
        </mxCell>
        <mxCell id="F9jJWtzdqdsVhb2H7EBQ-172" value="" style="endArrow=none;dashed=1;html=1;dashPattern=1 3;strokeWidth=2;rounded=0;exitX=0.25;exitY=0;exitDx=0;exitDy=0;" edge="1" parent="1" source="F9jJWtzdqdsVhb2H7EBQ-147">
          <mxGeometry width="50" height="50" relative="1" as="geometry">
            <mxPoint x="560" y="490" as="sourcePoint" />
            <mxPoint x="550" y="90" as="targetPoint" />
            <Array as="points">
              <mxPoint x="430" y="100" />
            </Array>
          </mxGeometry>
        </mxCell>
        <mxCell id="F9jJWtzdqdsVhb2H7EBQ-173" value="" style="endArrow=none;dashed=1;html=1;dashPattern=1 3;strokeWidth=2;rounded=0;exitX=0.786;exitY=-0.038;exitDx=0;exitDy=0;entryX=0;entryY=0.5;entryDx=0;entryDy=0;exitPerimeter=0;" edge="1" parent="1" source="F9jJWtzdqdsVhb2H7EBQ-167" target="F9jJWtzdqdsVhb2H7EBQ-63">
          <mxGeometry width="50" height="50" relative="1" as="geometry">
            <mxPoint x="309" y="140" as="sourcePoint" />
            <mxPoint x="531" y="70" as="targetPoint" />
            <Array as="points">
              <mxPoint x="411" y="80" />
            </Array>
          </mxGeometry>
        </mxCell>
        <mxCell id="F9jJWtzdqdsVhb2H7EBQ-186" value="Data" style="endArrow=open;endSize=12;dashed=1;html=1;rounded=0;entryX=0;entryY=0;entryDx=20;entryDy=0;entryPerimeter=0;exitX=1;exitY=0.25;exitDx=0;exitDy=0;" edge="1" parent="1" source="F9jJWtzdqdsVhb2H7EBQ-64" target="F9jJWtzdqdsVhb2H7EBQ-62">
          <mxGeometry width="160" relative="1" as="geometry">
            <mxPoint x="700" y="210" as="sourcePoint" />
            <mxPoint x="810" y="211" as="targetPoint" />
            <Array as="points">
              <mxPoint x="740" y="210" />
            </Array>
            <mxPoint as="offset" />
          </mxGeometry>
        </mxCell>
        <mxCell id="F9jJWtzdqdsVhb2H7EBQ-188" value="Use" style="endArrow=open;endSize=12;dashed=1;html=1;rounded=0;entryX=0.5;entryY=0;entryDx=0;entryDy=0;" edge="1" parent="1" target="F9jJWtzdqdsVhb2H7EBQ-158">
          <mxGeometry width="160" relative="1" as="geometry">
            <mxPoint x="665" y="70" as="sourcePoint" />
            <mxPoint x="665" y="130" as="targetPoint" />
            <Array as="points" />
            <mxPoint as="offset" />
          </mxGeometry>
        </mxCell>
        <mxCell id="F9jJWtzdqdsVhb2H7EBQ-189" value="Use" style="endArrow=open;endSize=12;dashed=1;html=1;rounded=0;entryX=0.5;entryY=0;entryDx=0;entryDy=0;exitX=1;exitY=0.25;exitDx=0;exitDy=0;" edge="1" parent="1" source="F9jJWtzdqdsVhb2H7EBQ-63" target="F9jJWtzdqdsVhb2H7EBQ-161">
          <mxGeometry width="160" relative="1" as="geometry">
            <mxPoint x="680" y="60" as="sourcePoint" />
            <mxPoint x="790" y="100" as="targetPoint" />
            <Array as="points" />
            <mxPoint as="offset" />
          </mxGeometry>
        </mxCell>
        <mxCell id="F9jJWtzdqdsVhb2H7EBQ-190" value="" style="endArrow=none;dashed=1;html=1;dashPattern=1 3;strokeWidth=2;rounded=0;exitX=0.5;exitY=0;exitDx=0;exitDy=0;entryX=1;entryY=0.25;entryDx=0;entryDy=0;" edge="1" parent="1" source="F9jJWtzdqdsVhb2H7EBQ-86" target="F9jJWtzdqdsVhb2H7EBQ-63">
          <mxGeometry width="50" height="50" relative="1" as="geometry">
            <mxPoint x="870" y="100" as="sourcePoint" />
            <mxPoint x="1092" y="30" as="targetPoint" />
            <Array as="points">
              <mxPoint x="930" y="100" />
            </Array>
          </mxGeometry>
        </mxCell>
        <mxCell id="F9jJWtzdqdsVhb2H7EBQ-199" value="" style="endArrow=diamondThin;endFill=1;html=1;rounded=0;exitX=0.5;exitY=0;exitDx=0;exitDy=0;" edge="1" parent="1" source="F9jJWtzdqdsVhb2H7EBQ-132">
          <mxGeometry width="160" relative="1" as="geometry">
            <mxPoint x="730" y="509.99999999999994" as="sourcePoint" />
            <mxPoint x="890" y="509.99999999999994" as="targetPoint" />
          </mxGeometry>
        </mxCell>
        <mxCell id="F9jJWtzdqdsVhb2H7EBQ-200" value="" style="endArrow=diamondThin;endFill=1;html=1;rounded=0;exitX=0.5;exitY=0;exitDx=0;exitDy=0;" edge="1" parent="1" source="F9jJWtzdqdsVhb2H7EBQ-130">
          <mxGeometry width="160" relative="1" as="geometry">
            <mxPoint x="698" y="660" as="sourcePoint" />
            <mxPoint x="890" y="510" as="targetPoint" />
          </mxGeometry>
        </mxCell>
        <mxCell id="F9jJWtzdqdsVhb2H7EBQ-201" value="" style="endArrow=diamondThin;endFill=1;html=1;rounded=0;exitX=0.5;exitY=0;exitDx=0;exitDy=0;" edge="1" parent="1" source="F9jJWtzdqdsVhb2H7EBQ-128">
          <mxGeometry width="160" relative="1" as="geometry">
            <mxPoint x="605" y="660" as="sourcePoint" />
            <mxPoint x="890" y="510" as="targetPoint" />
          </mxGeometry>
        </mxCell>
        <mxCell id="F9jJWtzdqdsVhb2H7EBQ-202" value="" style="endArrow=diamondThin;endFill=1;html=1;rounded=0;exitX=0.5;exitY=0;exitDx=0;exitDy=0;" edge="1" parent="1" source="F9jJWtzdqdsVhb2H7EBQ-126">
          <mxGeometry width="160" relative="1" as="geometry">
            <mxPoint x="605" y="660" as="sourcePoint" />
            <mxPoint x="890" y="510" as="targetPoint" />
          </mxGeometry>
        </mxCell>
        <mxCell id="F9jJWtzdqdsVhb2H7EBQ-203" value="" style="endArrow=diamondThin;endFill=1;html=1;rounded=0;exitX=0.5;exitY=0;exitDx=0;exitDy=0;" edge="1" parent="1" source="F9jJWtzdqdsVhb2H7EBQ-123">
          <mxGeometry width="160" relative="1" as="geometry">
            <mxPoint x="605" y="660" as="sourcePoint" />
            <mxPoint x="890" y="510" as="targetPoint" />
          </mxGeometry>
        </mxCell>
        <mxCell id="F9jJWtzdqdsVhb2H7EBQ-204" value="" style="endArrow=block;dashed=1;endFill=0;endSize=12;html=1;rounded=0;entryX=0.994;entryY=0.167;entryDx=0;entryDy=0;exitX=0;exitY=0.25;exitDx=0;exitDy=0;entryPerimeter=0;" edge="1" parent="1" source="F9jJWtzdqdsVhb2H7EBQ-119" target="F9jJWtzdqdsVhb2H7EBQ-134">
          <mxGeometry width="160" relative="1" as="geometry">
            <mxPoint x="206" y="684" as="sourcePoint" />
            <mxPoint x="170" y="712" as="targetPoint" />
          </mxGeometry>
        </mxCell>
        <mxCell id="F9jJWtzdqdsVhb2H7EBQ-205" value="" style="endArrow=block;dashed=1;endFill=0;endSize=12;html=1;rounded=0;entryX=0.5;entryY=0;entryDx=0;entryDy=0;exitX=0.5;exitY=0;exitDx=0;exitDy=0;" edge="1" parent="1" source="F9jJWtzdqdsVhb2H7EBQ-126" target="F9jJWtzdqdsVhb2H7EBQ-134">
          <mxGeometry width="160" relative="1" as="geometry">
            <mxPoint x="256" y="584.5" as="sourcePoint" />
            <mxPoint x="220" y="584.5" as="targetPoint" />
            <Array as="points">
              <mxPoint x="260" y="630" />
            </Array>
          </mxGeometry>
        </mxCell>
        <mxCell id="F9jJWtzdqdsVhb2H7EBQ-206" value="" style="endArrow=block;dashed=1;endFill=0;endSize=12;html=1;rounded=0;entryX=0.5;entryY=0;entryDx=0;entryDy=0;exitX=0.5;exitY=0;exitDx=0;exitDy=0;" edge="1" parent="1" source="F9jJWtzdqdsVhb2H7EBQ-123">
          <mxGeometry width="160" relative="1" as="geometry">
            <mxPoint x="428" y="660" as="sourcePoint" />
            <mxPoint x="90" y="660" as="targetPoint" />
            <Array as="points">
              <mxPoint x="260" y="640" />
            </Array>
          </mxGeometry>
        </mxCell>
        <mxCell id="F9jJWtzdqdsVhb2H7EBQ-207" value="" style="endArrow=block;dashed=1;endFill=0;endSize=12;html=1;rounded=0;entryX=0.5;entryY=0;entryDx=0;entryDy=0;exitX=0.5;exitY=0;exitDx=0;exitDy=0;" edge="1" parent="1" source="F9jJWtzdqdsVhb2H7EBQ-128">
          <mxGeometry width="160" relative="1" as="geometry">
            <mxPoint x="428" y="660" as="sourcePoint" />
            <mxPoint x="90" y="660" as="targetPoint" />
            <Array as="points">
              <mxPoint x="260" y="620" />
            </Array>
          </mxGeometry>
        </mxCell>
        <mxCell id="F9jJWtzdqdsVhb2H7EBQ-208" value="" style="endArrow=block;dashed=1;endFill=0;endSize=12;html=1;rounded=0;entryX=0.5;entryY=0;entryDx=0;entryDy=0;exitX=0.5;exitY=0;exitDx=0;exitDy=0;" edge="1" parent="1" source="F9jJWtzdqdsVhb2H7EBQ-130">
          <mxGeometry width="160" relative="1" as="geometry">
            <mxPoint x="428" y="660" as="sourcePoint" />
            <mxPoint x="90" y="660" as="targetPoint" />
            <Array as="points">
              <mxPoint x="260" y="610" />
            </Array>
          </mxGeometry>
        </mxCell>
        <mxCell id="F9jJWtzdqdsVhb2H7EBQ-209" value="" style="endArrow=block;dashed=1;endFill=0;endSize=12;html=1;rounded=0;entryX=0.5;entryY=0;entryDx=0;entryDy=0;exitX=0.5;exitY=0;exitDx=0;exitDy=0;" edge="1" parent="1" source="F9jJWtzdqdsVhb2H7EBQ-132">
          <mxGeometry width="160" relative="1" as="geometry">
            <mxPoint x="605" y="662" as="sourcePoint" />
            <mxPoint x="90" y="662" as="targetPoint" />
            <Array as="points">
              <mxPoint x="260" y="600" />
            </Array>
          </mxGeometry>
        </mxCell>
      </root>
    </mxGraphModel>
  </diagram>
</mxfile>
